<svg width="800" height="500" xmlns="http://www.w3.org/2000/svg">
  <!-- 背景 -->
  <rect width="800" height="500" fill="#f5f5f5"/>
  
  <!-- タイトル -->
  <text x="400" y="30" text-anchor="middle" font-size="20" font-weight="bold">CAS (Compare-And-Swap) のアトミック動作</text>
  
  <!-- CAS命令の詳細 -->
  <g id="cas-instruction">
    <rect x="50" y="60" width="700" height="180" fill="#e3f2fd" stroke="#1976d2" stroke-width="2"/>
    <text x="400" y="85" text-anchor="middle" font-size="16" font-weight="bold">LOCK CMPXCHG 命令</text>
    
    <!-- 命令の説明 -->
    <rect x="100" y="100" width="600" height="120" fill="white" stroke="#666" stroke-width="1"/>
    <text x="400" y="125" text-anchor="middle" font-size="12" font-family="monospace">LOCK CMPXCHG [memory_address], new_value</text>
    
    <text x="120" y="155" font-size="11">1. 現在のメモリ値を読み込み</text>
    <text x="120" y="175" font-size="11">2. 期待値（0）と比較</text>
    <text x="120" y="195" font-size="11">3. 一致すれば新しい値（ThreadID）を書き込み</text>
    <text x="120" y="215" font-size="11" font-weight="bold">※ これらすべてが1つの割り込み不可能な命令として実行</text>
  </g>
  
  <!-- 成功ケース -->
  <g id="success-case" transform="translate(50, 270)">
    <rect x="0" y="0" width="330" height="180" fill="#e8f5e9" stroke="#4caf50" stroke-width="2"/>
    <text x="165" y="25" text-anchor="middle" font-size="14" font-weight="bold">成功ケース（Thread A）</text>
    
    <!-- メモリ状態 -->
    <rect x="20" y="40" width="140" height="40" fill="#c8e6c9" stroke="#388e3c" stroke-width="1"/>
    <text x="90" y="65" text-anchor="middle" font-size="11">メモリ: 0</text>
    
    <!-- CAS実行 -->
    <rect x="20" y="90" width="140" height="40" fill="#fff3e0" stroke="#ff9800" stroke-width="1"/>
    <text x="90" y="105" text-anchor="middle" font-size="11">期待値: 0</text>
    <text x="90" y="120" text-anchor="middle" font-size="11">新値: ThreadA</text>
    
    <!-- 結果 -->
    <rect x="180" y="65" width="130" height="40" fill="#4caf50" stroke="#2e7d32" stroke-width="2"/>
    <text x="245" y="90" text-anchor="middle" font-size="12" font-weight="bold" fill="white">成功！</text>
    
    <!-- 新しいメモリ状態 -->
    <rect x="20" y="140" width="140" height="40" fill="#c8e6c9" stroke="#388e3c" stroke-width="1"/>
    <text x="90" y="165" text-anchor="middle" font-size="11">メモリ: ThreadA</text>
  </g>
  
  <!-- 失敗ケース -->
  <g id="failure-case" transform="translate(420, 270)">
    <rect x="0" y="0" width="330" height="180" fill="#ffcdd2" stroke="#d32f2f" stroke-width="2"/>
    <text x="165" y="25" text-anchor="middle" font-size="14" font-weight="bold">失敗ケース（Thread B）</text>
    
    <!-- メモリ状態 -->
    <rect x="20" y="40" width="140" height="40" fill="#ef9a9a" stroke="#c62828" stroke-width="1"/>
    <text x="90" y="65" text-anchor="middle" font-size="11">メモリ: ThreadA</text>
    
    <!-- CAS実行 -->
    <rect x="20" y="90" width="140" height="40" fill="#fff3e0" stroke="#ff9800" stroke-width="1"/>
    <text x="90" y="105" text-anchor="middle" font-size="11">期待値: 0</text>
    <text x="90" y="120" text-anchor="middle" font-size="11">新値: ThreadB</text>
    
    <!-- 結果 -->
    <rect x="180" y="65" width="130" height="40" fill="#d32f2f" stroke="#b71c1c" stroke-width="2"/>
    <text x="245" y="90" text-anchor="middle" font-size="12" font-weight="bold" fill="white">失敗！</text>
    
    <!-- メモリ状態は変わらない -->
    <rect x="20" y="140" width="140" height="40" fill="#ef9a9a" stroke="#c62828" stroke-width="1"/>
    <text x="90" y="165" text-anchor="middle" font-size="11">メモリ: ThreadA</text>
  </g>
  
  <!-- 矢印 -->
  <defs>
    <marker id="arrow" markerWidth="10" markerHeight="7" refX="9" refY="3.5" orient="auto">
      <polygon points="0 0, 10 3.5, 0 7" fill="#666"/>
    </marker>
  </defs>
  
  <path d="M 210 335 L 250 335" stroke="#666" stroke-width="2" marker-end="url(#arrow)" fill="none"/>
  <path d="M 580 335 L 620 335" stroke="#666" stroke-width="2" marker-end="url(#arrow)" fill="none"/>
</svg>