<svg width="800" height="500" xmlns="http://www.w3.org/2000/svg">
  <!-- 背景 -->
  <rect width="800" height="500" fill="#f5f5f5"/>
  
  <!-- タイトル -->
  <text x="400" y="30" text-anchor="middle" font-size="20" font-weight="bold">lock使用時のメモリアクセス保証</text>
  
  <!-- プロセスメモリ空間 -->
  <g id="process-memory">
    <!-- 外枠 -->
    <rect x="50" y="60" width="700" height="400" fill="white" stroke="#333" stroke-width="2"/>
    <text x="400" y="85" text-anchor="middle" font-size="16" font-weight="bold">プロセスメモリ空間</text>
    
    <!-- ヒープ領域 -->
    <rect x="200" y="110" width="400" height="180" fill="#e3f2fd" stroke="#1976d2" stroke-width="2"/>
    <text x="400" y="135" text-anchor="middle" font-size="14" font-weight="bold">ヒープ領域（全スレッド共有）</text>
    
    <!-- ロックオブジェクト -->
    <rect x="220" y="160" width="160" height="60" fill="#ffeb3b" stroke="#f57f17" stroke-width="2"/>
    <text x="300" y="185" text-anchor="middle" font-size="12" font-weight="bold">_lock オブジェクト</text>
    <text x="300" y="205" text-anchor="middle" font-size="10">（同期用）</text>
    
    <!-- Dictionary オブジェクト -->
    <rect x="400" y="160" width="180" height="100" fill="#fff3e0" stroke="#f57c00" stroke-width="2"/>
    <text x="490" y="185" text-anchor="middle" font-size="12" font-weight="bold">Dictionary _counts</text>
    
    <!-- Dictionary の中身 -->
    <rect x="420" y="200" width="140" height="40" fill="white" stroke="#666" stroke-width="1"/>
    <text x="490" y="225" text-anchor="middle" font-size="11">"TestMethod": 6</text>
    
    <!-- スレッドA のスタック -->
    <rect x="70" y="320" width="120" height="100" fill="#ffebee" stroke="#d32f2f" stroke-width="2"/>
    <text x="130" y="345" text-anchor="middle" font-size="14" font-weight="bold">スレッド A</text>
    <text x="130" y="365" text-anchor="middle" font-size="12">スタック</text>
    <rect x="80" y="380" width="100" height="30" fill="#c8e6c9" stroke="#4caf50" stroke-width="2"/>
    <text x="130" y="400" text-anchor="middle" font-size="11">ロック保持中</text>
    
    <!-- スレッドB のスタック -->
    <rect x="610" y="320" width="120" height="100" fill="#ffebee" stroke="#d32f2f" stroke-width="2"/>
    <text x="670" y="345" text-anchor="middle" font-size="14" font-weight="bold">スレッド B</text>
    <text x="670" y="365" text-anchor="middle" font-size="12">スタック</text>
    <rect x="620" y="380" width="100" height="30" fill="#fff3e0" stroke="#ff9800" stroke-width="2"/>
    <text x="670" y="400" text-anchor="middle" font-size="11">待機中</text>
  </g>
  
  <!-- アクセスを示す矢印 -->
  <defs>
    <marker id="arrowhead" markerWidth="10" markerHeight="7" refX="9" refY="3.5" orient="auto">
      <polygon points="0 0, 10 3.5, 0 7" fill="#d32f2f"/>
    </marker>
    <marker id="arrowhead-green" markerWidth="10" markerHeight="7" refX="9" refY="3.5" orient="auto">
      <polygon points="0 0, 10 3.5, 0 7" fill="#4caf50"/>
    </marker>
    <marker id="arrowhead-orange" markerWidth="10" markerHeight="7" refX="9" refY="3.5" orient="auto">
      <polygon points="0 0, 10 3.5, 0 7" fill="#ff9800"/>
    </marker>
  </defs>
  
  <!-- Thread A のアクセス -->
  <path d="M 130 380 L 250 220" stroke="#4caf50" stroke-width="3" marker-end="url(#arrowhead-green)" fill="none"/>
  <text x="130" y="298" font-size="11" fill="#4caf50" font-weight="bold">① ロック取得</text>
  
  <path d="M 180 380 L 420 220" stroke="#4caf50" stroke-width="2" marker-end="url(#arrowhead-green)" fill="none"/>
  <text x="304" y="308" font-size="11" fill="#4caf50" font-weight="bold">② アクセス可能</text>
  
  <!-- Thread B のブロック -->
  <path d="M 670 380 L 350 220" stroke="#ff9800" stroke-width="2" stroke-dasharray="5,5" fill="none"/>
  <text x="532" y="306" font-size="11" fill="#ff9800" font-weight="bold">❌ ブロック</text>
</svg>