<svg width="800" height="600" xmlns="http://www.w3.org/2000/svg">
  <!-- 背景 -->
  <rect width="800" height="600" fill="#f5f5f5"/>
  
  <!-- タイトル -->
  <text x="400" y="30" text-anchor="middle" font-size="20" font-weight="bold">メモリ構造と競合状態の発生メカニズム</text>
  
  <!-- プロセスメモリ空間 -->
  <g id="process-memory">
    <!-- 外枠 -->
    <rect x="50" y="60" width="700" height="400" fill="white" stroke="#333" stroke-width="2"/>
    <text x="400" y="85" text-anchor="middle" font-size="16" font-weight="bold">プロセスメモリ空間</text>
    
    <!-- ヒープ領域 -->
    <rect x="200" y="110" width="400" height="180" fill="#e3f2fd" stroke="#1976d2" stroke-width="2"/>
    <text x="400" y="135" text-anchor="middle" font-size="14" font-weight="bold">ヒープ領域（全スレッド共有）</text>
    
    <!-- Dictionary オブジェクト -->
    <rect x="250" y="160" width="300" height="100" fill="#fff3e0" stroke="#f57c00" stroke-width="2"/>
    <text x="400" y="185" text-anchor="middle" font-size="14" font-weight="bold">Dictionary&lt;string, int&gt; _counts</text>
    
    <!-- Dictionary の中身（アニメーション風に値を表示） -->
    <g id="dict-value">
      <rect x="270" y="200" width="260" height="40" fill="white" stroke="#666" stroke-width="1"/>
      <text x="400" y="225" text-anchor="middle" font-size="12" id="value-text">"TestMethod": 5</text>
    </g>
    
    <!-- スレッドA のスタック -->
    <rect x="70" y="320" width="120" height="100" fill="#ffebee" stroke="#d32f2f" stroke-width="2"/>
    <text x="130" y="345" text-anchor="middle" font-size="14" font-weight="bold">スレッド A</text>
    <text x="130" y="365" text-anchor="middle" font-size="12">スタック</text>
    <rect x="80" y="380" width="100" height="30" fill="white" stroke="#666" stroke-width="1"/>
    <text x="130" y="400" text-anchor="middle" font-size="11">count = 5</text>
    
    <!-- スレッドB のスタック -->
    <rect x="610" y="320" width="120" height="100" fill="#ffebee" stroke="#d32f2f" stroke-width="2"/>
    <text x="670" y="345" text-anchor="middle" font-size="14" font-weight="bold">スレッド B</text>
    <text x="670" y="365" text-anchor="middle" font-size="12">スタック</text>
    <rect x="620" y="380" width="100" height="30" fill="white" stroke="#666" stroke-width="1"/>
    <text x="670" y="400" text-anchor="middle" font-size="11">count = 5</text>
  </g>
  
  <!-- アクセスを示す矢印 -->
  <defs>
    <marker id="arrowhead" markerWidth="10" markerHeight="7" refX="9" refY="3.5" orient="auto">
      <polygon points="0 0, 10 3.5, 0 7" fill="#d32f2f"/>
    </marker>
    <marker id="arrowhead-blue" markerWidth="10" markerHeight="7" refX="9" refY="3.5" orient="auto">
      <polygon points="0 0, 10 3.5, 0 7" fill="#1976d2"/>
    </marker>
    <marker id="arrowhead-green" markerWidth="10" markerHeight="7" refX="9" refY="3.5" orient="auto">
      <polygon points="0 0, 10 3.5, 0 7" fill="#4caf50"/>
    </marker>
  </defs>
  
  <!-- Read/Write操作の可視化 -->
  <g id="operations">
    <!-- Thread A Read操作 (t1) -->
    <path d="M 130 380 L 270 220" stroke="#1976d2" stroke-width="2" marker-end="url(#arrowhead-blue)" fill="none" stroke-dasharray="5,5"/>
    <text x="150" y="280" font-size="11" fill="#1976d2" font-weight="bold">① Read</text>
    
    <!-- Thread B Read操作 (t2) -->
    <path d="M 670 380 L 530 220" stroke="#1976d2" stroke-width="2" marker-end="url(#arrowhead-blue)" fill="none" stroke-dasharray="5,5"/>
    <text x="620" y="280" font-size="11" fill="#1976d2" font-weight="bold">② Read</text>
    
    <!-- Thread A Write操作 (t3) -->
    <path d="M 180 380 L 320 240" stroke="#4caf50" stroke-width="2" marker-end="url(#arrowhead-green)" fill="none"/>
    <text x="242" y="340" font-size="11" fill="#4caf50" font-weight="bold">③ Write: 6</text>
    
    <!-- Thread B Write操作 (t4) -->
    <path d="M 620 380 L 480 240" stroke="#4caf50" stroke-width="2" marker-end="url(#arrowhead-green)" fill="none"/>
    <text x="486" y="340" font-size="11" fill="#4caf50" font-weight="bold">④ Write: 6</text>
  </g>
  
  <!-- 競合状態の詳細説明 -->
  <g id="race-condition" transform="translate(50, 480)">
    <text x="0" y="0" font-size="14" font-weight="bold">競合状態のタイムライン:</text>
    
    <!-- タイムライン -->
    <line x1="50" y1="20" x2="650" y2="20" stroke="#666" stroke-width="1"/>
    
    <!-- t1 -->
    <circle cx="100" cy="20" r="4" fill="#1976d2"/>
    <text x="100" y="40" text-anchor="middle" font-size="11">t1</text>
    <text x="100" y="55" text-anchor="middle" font-size="10" font-weight="bold">Thread A</text>
    <text x="100" y="68" text-anchor="middle" font-size="10">Read: 5</text>
    <text x="100" y="81" text-anchor="middle" font-size="9">count = 5</text>
    
    <!-- t2 -->
    <circle cx="250" cy="20" r="4" fill="#1976d2"/>
    <text x="250" y="40" text-anchor="middle" font-size="11">t2</text>
    <text x="250" y="55" text-anchor="middle" font-size="10" font-weight="bold">Thread B</text>
    <text x="250" y="68" text-anchor="middle" font-size="10">Read: 5</text>
    <text x="250" y="81" text-anchor="middle" font-size="9">count = 5</text>
    
    <!-- t3 -->
    <circle cx="400" cy="20" r="4" fill="#4caf50"/>
    <text x="400" y="40" text-anchor="middle" font-size="11">t3</text>
    <text x="400" y="55" text-anchor="middle" font-size="10" font-weight="bold">Thread A</text>
    <text x="400" y="68" text-anchor="middle" font-size="10">Modify: 5+1</text>
    <text x="400" y="81" text-anchor="middle" font-size="10">Write: 6</text>
    
    <!-- t4 -->
    <circle cx="550" cy="20" r="4" fill="#4caf50"/>
    <text x="550" y="40" text-anchor="middle" font-size="11">t4</text>
    <text x="550" y="55" text-anchor="middle" font-size="10" font-weight="bold">Thread B</text>
    <text x="550" y="68" text-anchor="middle" font-size="10">Modify: 5+1</text>
    <text x="550" y="81" text-anchor="middle" font-size="10">Write: 6</text>
    
    <!-- 結果 -->
    <rect x="600" y="5" width="100" height="30" fill="#ffcdd2" stroke="#d32f2f" stroke-width="1" rx="5"/>
    <text x="650" y="25" text-anchor="middle" font-size="12" font-weight="bold">カウント消失!</text>
  </g>
</svg>